<?xml version="1.0" standalone="no"?><!DOCTYPE svg PUBLIC "-//W3C//DTD SVG 1.1//EN" "http://www.w3.org/Graphics/SVG/1.1/DTD/svg11.dtd"><svg t="1756891704212" class="icon" viewBox="0 0 1024 1024" version="1.1" xmlns="http://www.w3.org/2000/svg" p-id="1027" xmlns:xlink="http://www.w3.org/1999/xlink" width="200" height="200"><path d="M746.688 149.312a128 128 0 1 0 0 256 128 128 0 0 0 0-256z m-213.376 128a213.312 213.312 0 1 1 426.688 0 213.312 213.312 0 0 1-426.688 0z m-448-192h384v384h-384v-384z m85.376 85.376V384H384V170.688H170.688z m-85.376 384h384v384h-384v-384zM170.688 640v213.312H384V640H170.688z m384-85.312h384v384h-384v-384zM853.312 640H640v213.312h213.312V640z" p-id="1028"></path></svg>